<svg width="48" height="48" viewBox="0 0 48 48" fill="none" xmlns="http://www.w3.org/2000/svg">
<rect width="48" height="48" fill="url(#paint0_linear_158_2)"/>
<path fill-rule="evenodd" clip-rule="evenodd" d="M12 9.38339V6.875C12 4.375 36 4.375 36 6.875V9.38339C36 11.8834 12 11.8834 12 9.38339ZM12 13.8834V24.8834C12 27.3834 36 27.3834 36 24.8834V13.8834C36 16.3834 12 16.3834 12 13.8834ZM12 29.8834V40.8834C12 43.3834 36 43.3834 36 40.8834V29.8834C36 32.3834 12 32.3834 12 29.8834ZM19.25 22.4167C19.6389 22.8056 20.1111 23 20.6667 23C21.2222 23 21.6944 22.8056 22.0833 22.4167C22.4722 22.0278 22.6667 21.5556 22.6667 21C22.6667 20.4444 22.4722 19.9722 22.0833 19.5833C21.6944 19.1944 21.2222 19 20.6667 19C20.1111 19 19.6389 19.1944 19.25 19.5833C18.8611 19.9722 18.6667 20.4444 18.6667 21C18.6667 21.5556 18.8611 22.0278 19.25 22.4167ZM23.2333 24.725C22.4556 25.2528 21.6 25.5167 20.6667 25.5167C19.4222 25.5167 18.3583 25.075 17.475 24.1917C16.5917 23.3083 16.15 22.2444 16.15 21C16.15 19.7444 16.5889 18.6778 17.4667 17.8C18.3444 16.9222 19.4111 16.4833 20.6667 16.4833C21.6444 16.4833 22.5194 16.7583 23.2917 17.3083C24.0639 17.8583 24.5889 18.5611 24.8667 19.4167H29.9833C30.1278 19.4167 30.2611 19.4417 30.3833 19.4917C30.5056 19.5417 30.6167 19.6167 30.7167 19.7167L31.2667 20.25C31.3778 20.3611 31.4556 20.4806 31.5 20.6083C31.5444 20.7361 31.5667 20.8667 31.5667 21C31.5667 21.1333 31.5444 21.2611 31.5 21.3833C31.4556 21.5056 31.3778 21.6222 31.2667 21.7333L29.9667 23.05C29.8556 23.1611 29.7389 23.2389 29.6167 23.2833C29.4944 23.3278 29.3667 23.35 29.2333 23.35C29.1 23.35 28.9722 23.325 28.85 23.275C28.7278 23.225 28.6111 23.15 28.5 23.05L27.7167 22.3L26.9667 23.05C26.8556 23.1611 26.7389 23.2389 26.6167 23.2833C26.4944 23.3278 26.3667 23.35 26.2333 23.35C26.1 23.35 25.9694 23.3278 25.8417 23.2833C25.7139 23.2389 25.5944 23.1667 25.4833 23.0667L25.0167 22.5833H24.8833C24.5611 23.4833 24.0111 24.1972 23.2333 24.725Z" fill="white"/>
<path d="M36 6.875L35.5 6.87499V6.875H36ZM19.25 22.4167L18.8964 22.7702L18.8964 22.7702L19.25 22.4167ZM22.0833 22.4167L22.4369 22.7702L22.4369 22.7702L22.0833 22.4167ZM19.25 19.5833L19.6036 19.9369L19.6036 19.9369L19.25 19.5833ZM17.4667 17.8L17.8202 18.1536L17.8202 18.1536L17.4667 17.8ZM24.8667 19.4167L24.3911 19.5711L24.5033 19.9167H24.8667V19.4167ZM30.3833 19.4917L30.194 19.9544L30.194 19.9544L30.3833 19.4917ZM30.7167 19.7167L30.3631 20.0703L30.3686 20.0756L30.7167 19.7167ZM31.2667 20.25L31.6203 19.8964L31.6147 19.891L31.2667 20.25ZM31.5 20.6083L31.0277 20.7726L31.0278 20.7726L31.5 20.6083ZM31.5 21.3833L31.0301 21.2125L31.0301 21.2125L31.5 21.3833ZM31.2667 21.7333L30.9131 21.3798L30.9109 21.382L31.2667 21.7333ZM29.9667 23.05L30.3202 23.4036L30.3225 23.4013L29.9667 23.05ZM29.6167 23.2833L29.4458 22.8134L29.4458 22.8134L29.6167 23.2833ZM28.85 23.275L29.0393 22.8122L29.0393 22.8122L28.85 23.275ZM28.5 23.05L28.1542 23.4112L28.1598 23.4165L28.1655 23.4217L28.5 23.05ZM27.7167 22.3L28.0625 21.9388L27.7091 21.6005L27.3631 21.9464L27.7167 22.3ZM26.9667 23.05L27.3202 23.4036L27.3202 23.4036L26.9667 23.05ZM26.6167 23.2833L26.4458 22.8134L26.4458 22.8134L26.6167 23.2833ZM25.8417 23.2833L26.0059 22.8111L26.0059 22.8111L25.8417 23.2833ZM25.4833 23.0667L25.1236 23.414L25.1358 23.4266L25.1489 23.4383L25.4833 23.0667ZM25.0167 22.5833L25.3764 22.236L25.2289 22.0833H25.0167V22.5833ZM24.8833 22.5833V22.0833H24.5313L24.4126 22.4148L24.8833 22.5833ZM11.5 6.875V9.38339H12.5V6.875H11.5ZM36.5 6.875C36.5 6.49787 36.2705 6.22211 36.0374 6.04087C35.8011 5.85706 35.4865 5.70868 35.1369 5.58381C34.4323 5.33216 33.4548 5.13129 32.3188 4.9735C30.0379 4.65672 27.0131 4.5 24 4.5C20.9869 4.5 17.9621 4.65672 15.6812 4.9735C14.5452 5.13129 13.5677 5.33216 12.8631 5.58381C12.5135 5.70867 12.1989 5.85706 11.9626 6.04087C11.7295 6.22211 11.5 6.49787 11.5 6.875H12.5C12.5 6.93962 12.458 6.92242 12.5765 6.83022C12.6917 6.7406 12.8928 6.63507 13.1994 6.52556C13.8073 6.30846 14.7048 6.11871 15.8188 5.96399C18.0379 5.65578 21.0131 5.5 24 5.5C26.9869 5.5 29.9621 5.65578 32.1812 5.964C33.2952 6.11871 34.1927 6.30846 34.8006 6.52556C35.1072 6.63507 35.3083 6.7406 35.4235 6.83022C35.542 6.92242 35.5 6.93962 35.5 6.87499L36.5 6.875ZM36.5 9.38339V6.875H35.5V9.38339H36.5ZM11.5 9.38339C11.5 9.76052 11.7295 10.0363 11.9626 10.2175C12.1989 10.4013 12.5135 10.5497 12.8631 10.6746C13.5677 10.9262 14.5452 11.1271 15.6812 11.2849C17.9621 11.6017 20.9869 11.7584 24 11.7584C27.0131 11.7584 30.0379 11.6017 32.3188 11.2849C33.4548 11.1271 34.4323 10.9262 35.1369 10.6746C35.4865 10.5497 35.8011 10.4013 36.0374 10.2175C36.2705 10.0363 36.5 9.76052 36.5 9.38339H35.5C35.5 9.31877 35.542 9.33597 35.4235 9.42817C35.3083 9.51779 35.1072 9.62332 34.8006 9.73283C34.1927 9.94993 33.2952 10.1397 32.1812 10.2944C29.9621 10.6026 26.9869 10.7584 24 10.7584C21.0131 10.7584 18.0379 10.6026 15.8188 10.2944C14.7048 10.1397 13.8073 9.94993 13.1994 9.73283C12.8928 9.62332 12.6917 9.51779 12.5765 9.42817C12.458 9.33597 12.5 9.31877 12.5 9.38339H11.5ZM12.5 24.8834V13.8834H11.5V24.8834H12.5ZM35.5 24.8834C35.5 24.8188 35.542 24.836 35.4235 24.9282C35.3083 25.0178 35.1072 25.1233 34.8006 25.2328C34.1927 25.4499 33.2952 25.6397 32.1812 25.7944C29.9621 26.1026 26.9869 26.2584 24 26.2584C21.0131 26.2584 18.0379 26.1026 15.8188 25.7944C14.7048 25.6397 13.8073 25.4499 13.1994 25.2328C12.8928 25.1233 12.6917 25.0178 12.5765 24.9282C12.458 24.836 12.5 24.8188 12.5 24.8834H11.5C11.5 25.2605 11.7295 25.5363 11.9626 25.7175C12.1989 25.9013 12.5135 26.0497 12.8631 26.1746C13.5677 26.4262 14.5452 26.6271 15.6812 26.7849C17.9621 27.1017 20.9869 27.2584 24 27.2584C27.0131 27.2584 30.0379 27.1017 32.3188 26.7849C33.4548 26.6271 34.4323 26.4262 35.1369 26.1746C35.4865 26.0497 35.8011 25.9013 36.0374 25.7175C36.2705 25.5363 36.5 25.2605 36.5 24.8834H35.5ZM35.5 13.8834V24.8834H36.5V13.8834H35.5ZM11.5 13.8834C11.5 14.2605 11.7295 14.5363 11.9626 14.7175C12.1989 14.9013 12.5135 15.0497 12.8631 15.1746C13.5677 15.4262 14.5452 15.6271 15.6812 15.7849C17.9621 16.1017 20.9869 16.2584 24 16.2584C27.0131 16.2584 30.0379 16.1017 32.3188 15.7849C33.4548 15.6271 34.4323 15.4262 35.1369 15.1746C35.4865 15.0497 35.8011 14.9013 36.0374 14.7175C36.2705 14.5363 36.5 14.2605 36.5 13.8834H35.5C35.5 13.8188 35.542 13.836 35.4235 13.9282C35.3083 14.0178 35.1072 14.1233 34.8006 14.2328C34.1927 14.4499 33.2952 14.6397 32.1812 14.7944C29.9621 15.1026 26.9869 15.2584 24 15.2584C21.0131 15.2584 18.0379 15.1026 15.8188 14.7944C14.7048 14.6397 13.8073 14.4499 13.1994 14.2328C12.8928 14.1233 12.6917 14.0178 12.5765 13.9282C12.458 13.836 12.5 13.8188 12.5 13.8834H11.5ZM12.5 40.8834V29.8834H11.5V40.8834H12.5ZM35.5 40.8834C35.5 40.8188 35.542 40.836 35.4235 40.9282C35.3083 41.0178 35.1072 41.1233 34.8006 41.2328C34.1927 41.4499 33.2952 41.6397 32.1812 41.7944C29.9621 42.1026 26.9869 42.2584 24 42.2584C21.0131 42.2584 18.0379 42.1026 15.8188 41.7944C14.7048 41.6397 13.8073 41.4499 13.1994 41.2328C12.8928 41.1233 12.6917 41.0178 12.5765 40.9282C12.458 40.836 12.5 40.8188 12.5 40.8834H11.5C11.5 41.2605 11.7295 41.5363 11.9626 41.7175C12.1989 41.9013 12.5135 42.0497 12.8631 42.1746C13.5677 42.4262 14.5452 42.6271 15.6812 42.7849C17.9621 43.1017 20.9869 43.2584 24 43.2584C27.0131 43.2584 30.0379 43.1017 32.3188 42.7849C33.4548 42.6271 34.4323 42.4262 35.1369 42.1746C35.4865 42.0497 35.8011 41.9013 36.0374 41.7175C36.2705 41.5363 36.5 41.2605 36.5 40.8834H35.5ZM35.5 29.8834V40.8834H36.5V29.8834H35.5ZM11.5 29.8834C11.5 30.2605 11.7295 30.5363 11.9626 30.7175C12.1989 30.9013 12.5135 31.0497 12.8631 31.1746C13.5677 31.4262 14.5452 31.6271 15.6812 31.7849C17.9621 32.1017 20.9869 32.2584 24 32.2584C27.0131 32.2584 30.0379 32.1017 32.3188 31.7849C33.4548 31.6271 34.4323 31.4262 35.1369 31.1746C35.4865 31.0497 35.8011 30.9013 36.0374 30.7175C36.2705 30.5363 36.5 30.2605 36.5 29.8834H35.5C35.5 29.8188 35.542 29.836 35.4235 29.9282C35.3083 30.0178 35.1072 30.1233 34.8006 30.2328C34.1927 30.4499 33.2952 30.6397 32.1812 30.7944C29.9621 31.1026 26.9869 31.2584 24 31.2584C21.0131 31.2584 18.0379 31.1026 15.8188 30.7944C14.7048 30.6397 13.8073 30.4499 13.1994 30.2328C12.8928 30.1233 12.6917 30.0178 12.5765 29.9282C12.458 29.836 12.5 29.8188 12.5 29.8834H11.5ZM20.6667 22.5C20.2422 22.5 19.8976 22.3572 19.6036 22.0631L18.8964 22.7702C19.3802 23.2539 19.98 23.5 20.6667 23.5V22.5ZM21.7298 22.0631C21.4357 22.3572 21.0911 22.5 20.6667 22.5V23.5C21.3533 23.5 21.9532 23.2539 22.4369 22.7702L21.7298 22.0631ZM22.1667 21C22.1667 21.4245 22.0238 21.7691 21.7298 22.0631L22.4369 22.7702C22.9206 22.2865 23.1667 21.6867 23.1667 21H22.1667ZM21.7298 19.9369C22.0238 20.2309 22.1667 20.5755 22.1667 21H23.1667C23.1667 20.3133 22.9206 19.7135 22.4369 19.2298L21.7298 19.9369ZM20.6667 19.5C21.0911 19.5 21.4357 19.6428 21.7298 19.9369L22.4369 19.2298C21.9532 18.7461 21.3533 18.5 20.6667 18.5V19.5ZM19.6036 19.9369C19.8976 19.6428 20.2422 19.5 20.6667 19.5V18.5C19.98 18.5 19.3802 18.7461 18.8964 19.2298L19.6036 19.9369ZM19.1667 21C19.1667 20.5755 19.3095 20.2309 19.6036 19.9369L18.8964 19.2298C18.4127 19.7135 18.1667 20.3133 18.1667 21H19.1667ZM19.6036 22.0631C19.3095 21.7691 19.1667 21.4245 19.1667 21H18.1667C18.1667 21.6867 18.4127 22.2865 18.8964 22.7702L19.6036 22.0631ZM20.6667 26.0167C21.7009 26.0167 22.6541 25.7223 23.5141 25.1387L22.9526 24.3113C22.257 24.7833 21.4991 25.0167 20.6667 25.0167V26.0167ZM17.1214 24.5452C18.0981 25.5219 19.289 26.0167 20.6667 26.0167V25.0167C19.5554 25.0167 18.6185 24.6281 17.8286 23.8381L17.1214 24.5452ZM15.65 21C15.65 22.3776 16.1448 23.5685 17.1214 24.5452L17.8286 23.8381C17.0386 23.0481 16.65 22.1113 16.65 21H15.65ZM17.1131 17.4464C16.1404 18.4192 15.65 19.6135 15.65 21H16.65C16.65 19.8753 17.0374 18.9364 17.8202 18.1536L17.1131 17.4464ZM20.6667 15.9833C19.2802 15.9833 18.0859 16.4737 17.1131 17.4464L17.8202 18.1536C18.603 17.3707 19.542 16.9833 20.6667 16.9833V15.9833ZM23.5817 16.9011C22.722 16.2888 21.7449 15.9833 20.6667 15.9833V16.9833C21.5439 16.9833 22.3169 17.2279 23.0016 17.7156L23.5817 16.9011ZM25.3422 19.2623C25.0295 18.299 24.4363 17.5097 23.5817 16.9011L23.0016 17.7156C23.6915 18.207 24.1483 18.8232 24.3911 19.5711L25.3422 19.2623ZM29.9833 18.9167H24.8667V19.9167H29.9833V18.9167ZM30.5727 19.0289C30.3849 18.9521 30.1866 18.9167 29.9833 18.9167V19.9167C30.069 19.9167 30.1373 19.9312 30.194 19.9544L30.5727 19.0289ZM31.0702 19.3631C30.9266 19.2195 30.7606 19.1058 30.5726 19.0289L30.194 19.9544C30.2505 19.9776 30.3067 20.0138 30.3631 20.0702L31.0702 19.3631ZM31.6147 19.891L31.0647 19.3577L30.3686 20.0756L30.9186 20.609L31.6147 19.891ZM31.9723 20.4441C31.8993 20.2344 31.7761 20.0523 31.6202 19.8964L30.9131 20.6036C30.9795 20.6699 31.0118 20.7267 31.0277 20.7726L31.9723 20.4441ZM32.0667 21C32.0667 20.8099 32.0348 20.6239 31.9722 20.4441L31.0278 20.7726C31.0541 20.8483 31.0667 20.9234 31.0667 21H32.0667ZM31.9699 21.5542C32.0348 21.3758 32.0667 21.1901 32.0667 21H31.0667C31.0667 21.0766 31.0541 21.1464 31.0301 21.2125L31.9699 21.5542ZM31.6202 22.0869C31.7724 21.9347 31.8958 21.7579 31.9699 21.5542L31.0301 21.2125C31.0153 21.2532 30.9831 21.3098 30.9131 21.3798L31.6202 22.0869ZM30.3225 23.4013L31.6225 22.0846L30.9109 21.382L29.6109 22.6987L30.3225 23.4013ZM29.7875 23.7532C29.9912 23.6792 30.168 23.5558 30.3202 23.4036L29.6131 22.6964C29.5431 22.7665 29.4866 22.7986 29.4458 22.8134L29.7875 23.7532ZM29.2333 23.85C29.4234 23.85 29.6092 23.8181 29.7875 23.7532L29.4458 22.8134C29.3797 22.8375 29.3099 22.85 29.2333 22.85V23.85ZM28.6607 23.7378C28.8436 23.8126 29.0357 23.85 29.2333 23.85V22.85C29.1643 22.85 29.1009 22.8374 29.0393 22.8122L28.6607 23.7378ZM28.1655 23.4217C28.3138 23.5551 28.4786 23.6633 28.6607 23.7378L29.0393 22.8122C28.9769 22.7867 28.9084 22.7449 28.8345 22.6783L28.1655 23.4217ZM27.3709 22.6612L28.1542 23.4112L28.8458 22.6888L28.0625 21.9388L27.3709 22.6612ZM27.3202 23.4036L28.0702 22.6536L27.3631 21.9464L26.6131 22.6964L27.3202 23.4036ZM26.7875 23.7532C26.9912 23.6792 27.168 23.5558 27.3202 23.4036L26.6131 22.6964C26.5431 22.7665 26.4866 22.7986 26.4458 22.8134L26.7875 23.7532ZM26.2333 23.85C26.4234 23.85 26.6092 23.8181 26.7875 23.7532L26.4458 22.8134C26.3797 22.8375 26.3099 22.85 26.2333 22.85V23.85ZM25.6774 23.7556C25.8572 23.8181 26.0433 23.85 26.2333 23.85V22.85C26.1567 22.85 26.0817 22.8374 26.0059 22.8111L25.6774 23.7556ZM25.1489 23.4383C25.3042 23.5782 25.4805 23.6871 25.6774 23.7556L26.0059 22.8111C25.9473 22.7907 25.8847 22.7552 25.8178 22.695L25.1489 23.4383ZM24.657 22.9306L25.1236 23.414L25.843 22.7194L25.3764 22.236L24.657 22.9306ZM24.8833 23.0833H25.0167V22.0833H24.8833V23.0833ZM23.5141 25.1387C24.3812 24.5504 24.9968 23.7499 25.3541 22.7519L24.4126 22.4148C24.1255 23.2168 23.641 23.8441 22.9526 24.3113L23.5141 25.1387Z" fill="white"/>
<defs>
<linearGradient id="paint0_linear_158_2" x1="7.5" y1="8.801e-07" x2="24" y2="48" gradientUnits="userSpaceOnUse">
<stop stop-color="#80D5D0"/>
<stop offset="0.379" stop-color="#006A66"/>
</linearGradient>
</defs>
</svg>
