<svg width="192" height="192" viewBox="0 0 192 192" fill="none" xmlns="http://www.w3.org/2000/svg">
<g clip-path="url(#clip0_125_8)">
<rect width="192" height="192" rx="15" fill="url(#paint0_linear_125_8)"/>
<path d="M64.75 114.75C59.5417 114.75 55.1146 112.927 51.4688 109.281C47.8229 105.635 46 101.208 46 96C46 90.7917 47.8229 86.3646 51.4688 82.7188C55.1146 79.0729 59.5417 77.25 64.75 77.25C69.9583 77.25 74.3854 79.0729 78.0312 82.7188C81.6771 86.3646 83.5 90.7917 83.5 96C83.5 101.208 81.6771 105.635 78.0312 109.281C74.3854 112.927 69.9583 114.75 64.75 114.75ZM64.75 133.5C72.7708 133.5 80.0104 131.208 86.4688 126.625C92.9271 122.042 97.4583 116 100.062 108.5H102.25L110.375 116.625C111 117.25 111.677 117.693 112.406 117.953C113.135 118.214 113.917 118.344 114.75 118.344C115.583 118.344 116.365 118.214 117.094 117.953C117.823 117.693 118.5 117.25 119.125 116.625L127.25 108.5L138.188 117.094C138.812 117.615 139.516 118.005 140.297 118.266C141.078 118.526 141.885 118.604 142.719 118.5C143.552 118.396 144.307 118.161 144.984 117.797C145.661 117.432 146.26 116.938 146.781 116.312L160.844 100.219C161.365 99.5938 161.755 98.9167 162.016 98.1875C162.276 97.4583 162.406 96.6771 162.406 95.8438C162.406 95.0104 162.25 94.2552 161.938 93.5781C161.625 92.901 161.208 92.3021 160.688 91.7812L154.281 85.375C153.656 84.75 152.953 84.2812 152.172 83.9688C151.391 83.6562 150.583 83.5 149.75 83.5H100.062C97.5625 76.4167 93.1615 70.4792 86.8594 65.6875C80.5573 60.8958 73.1875 58.5 64.75 58.5C54.3333 58.5 45.4792 62.1458 38.1875 69.4375C30.8958 76.7292 27.25 85.5833 27.25 96C27.25 106.417 30.8958 115.271 38.1875 122.562C45.4792 129.854 54.3333 133.5 64.75 133.5Z" fill="white"/>
</g>
<defs>
<linearGradient id="paint0_linear_125_8" x1="24.6316" y1="3.05717e-06" x2="123.158" y2="192" gradientUnits="userSpaceOnUse">
<stop stop-color="#29A7A1"/>
<stop offset="0.403193" stop-color="#1D7874"/>
</linearGradient>
<clipPath id="clip0_125_8">
<rect width="192" height="192" fill="white"/>
</clipPath>
</defs>
</svg>
